<mxfile host="app.diagrams.net" modified="2024-05-24T09:09:59.456Z" agent="Mozilla/5.0 (Windows NT 10.0; Win64; x64) AppleWebKit/537.36 (KHTML, like Gecko) Chrome/125.0.0.0 Safari/537.36 Edg/125.0.0.0" etag="rYuyQRQrmO42t0kSZGLl" version="24.4.4" type="github">
  <diagram id="R2lEEEUBdFMjLlhIrx00" name="Page-1">
    <mxGraphModel dx="868" dy="446" grid="0" gridSize="10" guides="1" tooltips="1" connect="1" arrows="1" fold="1" page="1" pageScale="1" pageWidth="850" pageHeight="1100" math="0" shadow="0" extFonts="Permanent Marker^https://fonts.googleapis.com/css?family=Permanent+Marker">
      <root>
        <mxCell id="0" />
        <mxCell id="1" parent="0" />
        <mxCell id="Ko6kIF6jsYIh-3BVd2aD-50" style="rounded=0;orthogonalLoop=1;jettySize=auto;html=1;exitX=1;exitY=0.5;exitDx=0;exitDy=0;entryX=0;entryY=0.5;entryDx=0;entryDy=0;endArrow=none;endFill=0;" parent="1" source="Ko6kIF6jsYIh-3BVd2aD-1" target="Ko6kIF6jsYIh-3BVd2aD-49" edge="1">
          <mxGeometry relative="1" as="geometry" />
        </mxCell>
        <mxCell id="Ko6kIF6jsYIh-3BVd2aD-57" style="rounded=0;orthogonalLoop=1;jettySize=auto;html=1;exitX=0.5;exitY=1;exitDx=0;exitDy=0;endArrow=none;endFill=0;" parent="1" source="Ko6kIF6jsYIh-3BVd2aD-1" target="Ko6kIF6jsYIh-3BVd2aD-56" edge="1">
          <mxGeometry relative="1" as="geometry" />
        </mxCell>
        <mxCell id="Ko6kIF6jsYIh-3BVd2aD-1" value="用户" style="rounded=0;whiteSpace=wrap;html=1;" parent="1" vertex="1">
          <mxGeometry x="180" y="254" width="62" height="36" as="geometry" />
        </mxCell>
        <mxCell id="Ko6kIF6jsYIh-3BVd2aD-58" style="rounded=0;orthogonalLoop=1;jettySize=auto;html=1;exitX=0;exitY=1;exitDx=0;exitDy=0;endArrow=none;endFill=0;" parent="1" source="Ko6kIF6jsYIh-3BVd2aD-2" target="Ko6kIF6jsYIh-3BVd2aD-56" edge="1">
          <mxGeometry relative="1" as="geometry" />
        </mxCell>
        <mxCell id="Ko6kIF6jsYIh-3BVd2aD-2" value="题目" style="rounded=0;whiteSpace=wrap;html=1;" parent="1" vertex="1">
          <mxGeometry x="415" y="254" width="62" height="36" as="geometry" />
        </mxCell>
        <mxCell id="Ko6kIF6jsYIh-3BVd2aD-34" style="rounded=0;orthogonalLoop=1;jettySize=auto;html=1;exitX=1;exitY=0.5;exitDx=0;exitDy=0;entryX=0.25;entryY=1;entryDx=0;entryDy=0;endArrow=none;endFill=0;" parent="1" source="Ko6kIF6jsYIh-3BVd2aD-4" target="Ko6kIF6jsYIh-3BVd2aD-1" edge="1">
          <mxGeometry relative="1" as="geometry" />
        </mxCell>
        <mxCell id="Ko6kIF6jsYIh-3BVd2aD-4" value="ID" style="ellipse;whiteSpace=wrap;html=1;" parent="1" vertex="1">
          <mxGeometry x="79" y="304" width="41" height="27" as="geometry" />
        </mxCell>
        <mxCell id="Ko6kIF6jsYIh-3BVd2aD-35" style="rounded=0;orthogonalLoop=1;jettySize=auto;html=1;exitX=1;exitY=0.5;exitDx=0;exitDy=0;endArrow=none;endFill=0;" parent="1" source="Ko6kIF6jsYIh-3BVd2aD-5" target="Ko6kIF6jsYIh-3BVd2aD-1" edge="1">
          <mxGeometry relative="1" as="geometry" />
        </mxCell>
        <mxCell id="Ko6kIF6jsYIh-3BVd2aD-5" value="账号" style="ellipse;whiteSpace=wrap;html=1;" parent="1" vertex="1">
          <mxGeometry x="76" y="259.5" width="44" height="28" as="geometry" />
        </mxCell>
        <mxCell id="Ko6kIF6jsYIh-3BVd2aD-36" style="rounded=0;orthogonalLoop=1;jettySize=auto;html=1;exitX=1;exitY=1;exitDx=0;exitDy=0;endArrow=none;endFill=0;" parent="1" source="Ko6kIF6jsYIh-3BVd2aD-6" target="Ko6kIF6jsYIh-3BVd2aD-1" edge="1">
          <mxGeometry relative="1" as="geometry" />
        </mxCell>
        <mxCell id="Ko6kIF6jsYIh-3BVd2aD-6" value="密码" style="ellipse;whiteSpace=wrap;html=1;" parent="1" vertex="1">
          <mxGeometry x="91" y="215" width="44" height="28" as="geometry" />
        </mxCell>
        <mxCell id="Ko6kIF6jsYIh-3BVd2aD-37" style="rounded=0;orthogonalLoop=1;jettySize=auto;html=1;exitX=1;exitY=1;exitDx=0;exitDy=0;endArrow=none;endFill=0;" parent="1" source="Ko6kIF6jsYIh-3BVd2aD-8" target="Ko6kIF6jsYIh-3BVd2aD-1" edge="1">
          <mxGeometry relative="1" as="geometry" />
        </mxCell>
        <mxCell id="Ko6kIF6jsYIh-3BVd2aD-8" value="昵称" style="ellipse;whiteSpace=wrap;html=1;" parent="1" vertex="1">
          <mxGeometry x="127" y="187" width="44" height="28" as="geometry" />
        </mxCell>
        <mxCell id="Ko6kIF6jsYIh-3BVd2aD-38" style="rounded=0;orthogonalLoop=1;jettySize=auto;html=1;exitX=0.5;exitY=1;exitDx=0;exitDy=0;endArrow=none;endFill=0;" parent="1" source="Ko6kIF6jsYIh-3BVd2aD-9" target="Ko6kIF6jsYIh-3BVd2aD-1" edge="1">
          <mxGeometry relative="1" as="geometry" />
        </mxCell>
        <mxCell id="Ko6kIF6jsYIh-3BVd2aD-9" value="头像" style="ellipse;whiteSpace=wrap;html=1;" parent="1" vertex="1">
          <mxGeometry x="179" y="172" width="44" height="28" as="geometry" />
        </mxCell>
        <mxCell id="Ko6kIF6jsYIh-3BVd2aD-40" style="rounded=0;orthogonalLoop=1;jettySize=auto;html=1;exitX=0.5;exitY=1;exitDx=0;exitDy=0;endArrow=none;endFill=0;" parent="1" source="Ko6kIF6jsYIh-3BVd2aD-10" target="Ko6kIF6jsYIh-3BVd2aD-1" edge="1">
          <mxGeometry relative="1" as="geometry" />
        </mxCell>
        <mxCell id="Ko6kIF6jsYIh-3BVd2aD-10" value="简介" style="ellipse;whiteSpace=wrap;html=1;" parent="1" vertex="1">
          <mxGeometry x="269" y="201" width="44" height="28" as="geometry" />
        </mxCell>
        <mxCell id="Ko6kIF6jsYIh-3BVd2aD-39" style="rounded=0;orthogonalLoop=1;jettySize=auto;html=1;exitX=0.5;exitY=1;exitDx=0;exitDy=0;endArrow=none;endFill=0;" parent="1" source="Ko6kIF6jsYIh-3BVd2aD-11" target="Ko6kIF6jsYIh-3BVd2aD-1" edge="1">
          <mxGeometry relative="1" as="geometry" />
        </mxCell>
        <mxCell id="Ko6kIF6jsYIh-3BVd2aD-11" value="角色" style="ellipse;whiteSpace=wrap;html=1;" parent="1" vertex="1">
          <mxGeometry x="232.5" y="178" width="44" height="28" as="geometry" />
        </mxCell>
        <mxCell id="Ko6kIF6jsYIh-3BVd2aD-42" style="rounded=0;orthogonalLoop=1;jettySize=auto;html=1;exitX=0.5;exitY=1;exitDx=0;exitDy=0;endArrow=none;endFill=0;" parent="1" source="Ko6kIF6jsYIh-3BVd2aD-12" target="Ko6kIF6jsYIh-3BVd2aD-2" edge="1">
          <mxGeometry relative="1" as="geometry" />
        </mxCell>
        <mxCell id="Ko6kIF6jsYIh-3BVd2aD-12" value="ID" style="ellipse;whiteSpace=wrap;html=1;" parent="1" vertex="1">
          <mxGeometry x="384" y="188" width="41" height="27" as="geometry" />
        </mxCell>
        <mxCell id="Ko6kIF6jsYIh-3BVd2aD-43" style="rounded=0;orthogonalLoop=1;jettySize=auto;html=1;exitX=0;exitY=1;exitDx=0;exitDy=0;entryX=0.5;entryY=0;entryDx=0;entryDy=0;endArrow=none;endFill=0;" parent="1" source="Ko6kIF6jsYIh-3BVd2aD-13" target="Ko6kIF6jsYIh-3BVd2aD-2" edge="1">
          <mxGeometry relative="1" as="geometry" />
        </mxCell>
        <mxCell id="Ko6kIF6jsYIh-3BVd2aD-13" value="标题" style="ellipse;whiteSpace=wrap;html=1;" parent="1" vertex="1">
          <mxGeometry x="486" y="200" width="41" height="27" as="geometry" />
        </mxCell>
        <mxCell id="Ko6kIF6jsYIh-3BVd2aD-44" style="rounded=0;orthogonalLoop=1;jettySize=auto;html=1;exitX=0;exitY=0.5;exitDx=0;exitDy=0;endArrow=none;endFill=0;" parent="1" source="Ko6kIF6jsYIh-3BVd2aD-14" target="Ko6kIF6jsYIh-3BVd2aD-2" edge="1">
          <mxGeometry relative="1" as="geometry" />
        </mxCell>
        <mxCell id="Ko6kIF6jsYIh-3BVd2aD-14" value="内容" style="ellipse;whiteSpace=wrap;html=1;" parent="1" vertex="1">
          <mxGeometry x="515" y="240" width="41" height="27" as="geometry" />
        </mxCell>
        <mxCell id="Ko6kIF6jsYIh-3BVd2aD-41" style="rounded=0;orthogonalLoop=1;jettySize=auto;html=1;exitX=0;exitY=1;exitDx=0;exitDy=0;endArrow=none;endFill=0;" parent="1" source="Ko6kIF6jsYIh-3BVd2aD-15" target="Ko6kIF6jsYIh-3BVd2aD-2" edge="1">
          <mxGeometry relative="1" as="geometry" />
        </mxCell>
        <mxCell id="Ko6kIF6jsYIh-3BVd2aD-15" value="标签&lt;span style=&quot;color: rgba(0, 0, 0, 0); font-family: monospace; font-size: 0px; text-align: start; text-wrap: nowrap;&quot;&gt;%3CmxGraphModel%3E%3Croot%3E%3CmxCell%20id%3D%220%22%2F%3E%3CmxCell%20id%3D%221%22%20parent%3D%220%22%2F%3E%3CmxCell%20id%3D%222%22%20value%3D%22%E5%86%85%E5%AE%B9%22%20style%3D%22ellipse%3BwhiteSpace%3Dwrap%3Bhtml%3D1%3B%22%20vertex%3D%221%22%20parent%3D%221%22%3E%3CmxGeometry%20x%3D%22463%22%20y%3D%22303%22%20width%3D%2241%22%20height%3D%2227%22%20as%3D%22geometry%22%2F%3E%3C%2FmxCell%3E%3C%2Froot%3E%3C%2FmxGraphModel%3E&lt;/span&gt;" style="ellipse;whiteSpace=wrap;html=1;" parent="1" vertex="1">
          <mxGeometry x="436" y="182" width="41" height="27" as="geometry" />
        </mxCell>
        <mxCell id="Ko6kIF6jsYIh-3BVd2aD-45" style="rounded=0;orthogonalLoop=1;jettySize=auto;html=1;exitX=0;exitY=0.5;exitDx=0;exitDy=0;endArrow=none;endFill=0;" parent="1" source="Ko6kIF6jsYIh-3BVd2aD-16" target="Ko6kIF6jsYIh-3BVd2aD-2" edge="1">
          <mxGeometry relative="1" as="geometry" />
        </mxCell>
        <mxCell id="Ko6kIF6jsYIh-3BVd2aD-16" value="答案" style="ellipse;whiteSpace=wrap;html=1;" parent="1" vertex="1">
          <mxGeometry x="530" y="277" width="41" height="27" as="geometry" />
        </mxCell>
        <mxCell id="Ko6kIF6jsYIh-3BVd2aD-46" style="rounded=0;orthogonalLoop=1;jettySize=auto;html=1;exitX=0;exitY=0.5;exitDx=0;exitDy=0;endArrow=none;endFill=0;" parent="1" source="Ko6kIF6jsYIh-3BVd2aD-17" target="Ko6kIF6jsYIh-3BVd2aD-2" edge="1">
          <mxGeometry relative="1" as="geometry" />
        </mxCell>
        <mxCell id="Ko6kIF6jsYIh-3BVd2aD-17" value="判题用例" style="ellipse;whiteSpace=wrap;html=1;" parent="1" vertex="1">
          <mxGeometry x="515" y="315" width="50" height="25" as="geometry" />
        </mxCell>
        <mxCell id="Ko6kIF6jsYIh-3BVd2aD-47" style="rounded=0;orthogonalLoop=1;jettySize=auto;html=1;exitX=0;exitY=0;exitDx=0;exitDy=0;endArrow=none;endFill=0;" parent="1" source="Ko6kIF6jsYIh-3BVd2aD-19" target="Ko6kIF6jsYIh-3BVd2aD-2" edge="1">
          <mxGeometry relative="1" as="geometry" />
        </mxCell>
        <mxCell id="Ko6kIF6jsYIh-3BVd2aD-19" value="判题用例" style="ellipse;whiteSpace=wrap;html=1;" parent="1" vertex="1">
          <mxGeometry x="477" y="338" width="50" height="25" as="geometry" />
        </mxCell>
        <mxCell id="j-1vXMcpyGWneG88ITK2-2" style="rounded=0;orthogonalLoop=1;jettySize=auto;html=1;exitX=1;exitY=0;exitDx=0;exitDy=0;endArrow=none;endFill=0;" edge="1" parent="1" source="Ko6kIF6jsYIh-3BVd2aD-20" target="Ko6kIF6jsYIh-3BVd2aD-56">
          <mxGeometry relative="1" as="geometry" />
        </mxCell>
        <mxCell id="Ko6kIF6jsYIh-3BVd2aD-20" value="ID" style="ellipse;whiteSpace=wrap;html=1;" parent="1" vertex="1">
          <mxGeometry x="179" y="418" width="41" height="27" as="geometry" />
        </mxCell>
        <mxCell id="Ko6kIF6jsYIh-3BVd2aD-48" style="rounded=0;orthogonalLoop=1;jettySize=auto;html=1;exitX=0.5;exitY=0;exitDx=0;exitDy=0;endArrow=none;endFill=0;" parent="1" source="Ko6kIF6jsYIh-3BVd2aD-21" target="Ko6kIF6jsYIh-3BVd2aD-2" edge="1">
          <mxGeometry relative="1" as="geometry" />
        </mxCell>
        <mxCell id="Ko6kIF6jsYIh-3BVd2aD-21" value="创建用户id" style="ellipse;whiteSpace=wrap;html=1;" parent="1" vertex="1">
          <mxGeometry x="411" y="347" width="62" height="25" as="geometry" />
        </mxCell>
        <mxCell id="j-1vXMcpyGWneG88ITK2-3" style="edgeStyle=none;rounded=0;orthogonalLoop=1;jettySize=auto;html=1;exitX=1;exitY=0;exitDx=0;exitDy=0;endArrow=none;endFill=0;" edge="1" parent="1" source="Ko6kIF6jsYIh-3BVd2aD-22" target="Ko6kIF6jsYIh-3BVd2aD-56">
          <mxGeometry relative="1" as="geometry" />
        </mxCell>
        <mxCell id="Ko6kIF6jsYIh-3BVd2aD-22" value="编程语言" style="ellipse;whiteSpace=wrap;html=1;" parent="1" vertex="1">
          <mxGeometry x="198" y="459" width="62" height="32" as="geometry" />
        </mxCell>
        <mxCell id="j-1vXMcpyGWneG88ITK2-4" style="edgeStyle=none;rounded=0;orthogonalLoop=1;jettySize=auto;html=1;exitX=0.5;exitY=0;exitDx=0;exitDy=0;entryX=0.5;entryY=1;entryDx=0;entryDy=0;endArrow=none;endFill=0;" edge="1" parent="1" source="Ko6kIF6jsYIh-3BVd2aD-23" target="Ko6kIF6jsYIh-3BVd2aD-56">
          <mxGeometry relative="1" as="geometry" />
        </mxCell>
        <mxCell id="Ko6kIF6jsYIh-3BVd2aD-23" value="用户代码" style="ellipse;whiteSpace=wrap;html=1;" parent="1" vertex="1">
          <mxGeometry x="257.5" y="480" width="62" height="32" as="geometry" />
        </mxCell>
        <mxCell id="j-1vXMcpyGWneG88ITK2-5" style="edgeStyle=none;rounded=0;orthogonalLoop=1;jettySize=auto;html=1;exitX=0.5;exitY=0;exitDx=0;exitDy=0;endArrow=none;endFill=0;" edge="1" parent="1" source="Ko6kIF6jsYIh-3BVd2aD-24" target="Ko6kIF6jsYIh-3BVd2aD-56">
          <mxGeometry relative="1" as="geometry" />
        </mxCell>
        <mxCell id="Ko6kIF6jsYIh-3BVd2aD-24" value="判题信息" style="ellipse;whiteSpace=wrap;html=1;" parent="1" vertex="1">
          <mxGeometry x="319.5" y="480" width="62" height="32" as="geometry" />
        </mxCell>
        <mxCell id="j-1vXMcpyGWneG88ITK2-7" style="edgeStyle=none;rounded=0;orthogonalLoop=1;jettySize=auto;html=1;exitX=0;exitY=0;exitDx=0;exitDy=0;endArrow=none;endFill=0;" edge="1" parent="1" source="Ko6kIF6jsYIh-3BVd2aD-25" target="Ko6kIF6jsYIh-3BVd2aD-56">
          <mxGeometry relative="1" as="geometry" />
        </mxCell>
        <mxCell id="Ko6kIF6jsYIh-3BVd2aD-25" value="题目id" style="ellipse;whiteSpace=wrap;html=1;" parent="1" vertex="1">
          <mxGeometry x="411" y="421" width="62" height="32" as="geometry" />
        </mxCell>
        <mxCell id="j-1vXMcpyGWneG88ITK2-6" style="edgeStyle=none;rounded=0;orthogonalLoop=1;jettySize=auto;html=1;exitX=0;exitY=0;exitDx=0;exitDy=0;endArrow=none;endFill=0;" edge="1" parent="1" source="Ko6kIF6jsYIh-3BVd2aD-26" target="Ko6kIF6jsYIh-3BVd2aD-56">
          <mxGeometry relative="1" as="geometry" />
        </mxCell>
        <mxCell id="Ko6kIF6jsYIh-3BVd2aD-26" value="创建用户id" style="ellipse;whiteSpace=wrap;html=1;" parent="1" vertex="1">
          <mxGeometry x="381.5" y="459" width="62" height="32" as="geometry" />
        </mxCell>
        <mxCell id="Ko6kIF6jsYIh-3BVd2aD-51" style="rounded=0;orthogonalLoop=1;jettySize=auto;html=1;exitX=1;exitY=0.5;exitDx=0;exitDy=0;endArrow=none;endFill=0;" parent="1" source="Ko6kIF6jsYIh-3BVd2aD-49" target="Ko6kIF6jsYIh-3BVd2aD-2" edge="1">
          <mxGeometry relative="1" as="geometry" />
        </mxCell>
        <mxCell id="Ko6kIF6jsYIh-3BVd2aD-49" value="创建" style="rhombus;whiteSpace=wrap;html=1;" parent="1" vertex="1">
          <mxGeometry x="296" y="256.5" width="66" height="31" as="geometry" />
        </mxCell>
        <mxCell id="Ko6kIF6jsYIh-3BVd2aD-54" value="1" style="text;html=1;align=center;verticalAlign=middle;resizable=0;points=[];autosize=1;strokeColor=none;fillColor=none;" parent="1" vertex="1">
          <mxGeometry x="251" y="251" width="25" height="26" as="geometry" />
        </mxCell>
        <mxCell id="Ko6kIF6jsYIh-3BVd2aD-55" value="n" style="text;html=1;align=center;verticalAlign=middle;resizable=0;points=[];autosize=1;strokeColor=none;fillColor=none;" parent="1" vertex="1">
          <mxGeometry x="370" y="248" width="25" height="26" as="geometry" />
        </mxCell>
        <mxCell id="Ko6kIF6jsYIh-3BVd2aD-56" value="提交" style="rhombus;whiteSpace=wrap;html=1;" parent="1" vertex="1">
          <mxGeometry x="282.5" y="350" width="66" height="31" as="geometry" />
        </mxCell>
        <mxCell id="Ko6kIF6jsYIh-3BVd2aD-60" value="1" style="text;html=1;align=center;verticalAlign=middle;resizable=0;points=[];autosize=1;strokeColor=none;fillColor=none;" parent="1" vertex="1">
          <mxGeometry x="232.5" y="314" width="25" height="26" as="geometry" />
        </mxCell>
        <mxCell id="Ko6kIF6jsYIh-3BVd2aD-61" value="1" style="text;html=1;align=center;verticalAlign=middle;resizable=0;points=[];autosize=1;strokeColor=none;fillColor=none;" parent="1" vertex="1">
          <mxGeometry x="348.5" y="309" width="25" height="26" as="geometry" />
        </mxCell>
      </root>
    </mxGraphModel>
  </diagram>
</mxfile>
